<?xml version="1.0" encoding="UTF-8" standalone="no"?>
<!-- Created with Inkscape (http://www.inkscape.org/) -->

<svg
   width="120.22427mm"
   height="148.02174mm"
   viewBox="0 0 120.22426 148.02175"
   version="1.1"
   id="svg1"
   xml:space="preserve"
   inkscape:version="1.4.3 (0d15f75, 2025-12-25)"
   sodipodi:docname="montin-logo.svg"
   inkscape:export-batch-name="montin-logo-vertical-dark"
   inkscape:export-batch-path="C:\Users\André\Desktop"
   inkscape:export-filename="montin-logo.svg"
   inkscape:export-xdpi="96"
   inkscape:export-ydpi="96"
   xmlns:inkscape="http://www.inkscape.org/namespaces/inkscape"
   xmlns:sodipodi="http://sodipodi.sourceforge.net/DTD/sodipodi-0.dtd"
   xmlns="http://www.w3.org/2000/svg"
   xmlns:svg="http://www.w3.org/2000/svg"><sodipodi:namedview
     id="namedview1"
     pagecolor="#ffffff"
     bordercolor="#000000"
     borderopacity="0.25"
     inkscape:showpageshadow="2"
     inkscape:pageopacity="0.0"
     inkscape:pagecheckerboard="0"
     inkscape:deskcolor="#d1d1d1"
     inkscape:document-units="mm"
     inkscape:zoom="0.69174803"
     inkscape:cx="-610.77153"
     inkscape:cy="96.13327"
     inkscape:window-width="1920"
     inkscape:window-height="991"
     inkscape:window-x="324"
     inkscape:window-y="1341"
     inkscape:window-maximized="1"
     inkscape:current-layer="layer5"
     showgrid="false"><inkscape:grid
       id="grid2"
       units="mm"
       originx="-35.95314"
       originy="-329.4763"
       spacingx="0.99999998"
       spacingy="1"
       empcolor="#0099e5"
       empopacity="0.30196078"
       color="#0099e5"
       opacity="0.14901961"
       empspacing="5"
       enabled="true"
       visible="false" /><inkscape:page
       x="0"
       y="-2.46751e-07"
       width="120.22426"
       height="148.02174"
       id="page1"
       margin="0"
       bleed="0"
       inkscape:label="path-light" /></sodipodi:namedview><defs
     id="defs1"><clipPath
       clipPathUnits="userSpaceOnUse"
       id="clipPath12-4-8"><circle
         style="fill:#e9ecef;fill-opacity:1;stroke:none;stroke-width:0.221851;stroke-opacity:1"
         id="circle13-5-4"
         cx="50"
         cy="50"
         r="49.889076" /></clipPath><clipPath
       clipPathUnits="userSpaceOnUse"
       id="clipPath11-5-9"><circle
         style="fill:#e9ecef;fill-opacity:1;stroke:none;stroke-width:0.221851;stroke-opacity:1"
         id="circle12-1-6"
         cx="50"
         cy="50"
         r="49.889076" /></clipPath><clipPath
       clipPathUnits="userSpaceOnUse"
       id="clipPath10-7-3"><circle
         style="fill:#e9ecef;fill-opacity:1;stroke:none;stroke-width:0.221851;stroke-opacity:1"
         id="circle11-1-7"
         cx="50"
         cy="50"
         r="49.889076" /></clipPath></defs><g
     inkscape:groupmode="layer"
     id="layer5"
     inkscape:label="Montanha2"
     transform="translate(-35.95312,-329.47631)"><g
       id="g4-2"
       transform="translate(-203.01985,455.30706)"><circle
         style="fill:#e9ecef;fill-opacity:1;stroke:none;stroke-width:0.221851;stroke-opacity:1"
         id="path1-2-9"
         cx="298.97293"
         cy="-75.941673"
         r="49.889076" /><path
         style="fill:#9aa6b2;fill-opacity:1;stroke:none;stroke-width:0.264583;stroke-opacity:1"
         d="m -4.6186055,50.804661 c 13.0407686,0 29.8850945,-17.116009 34.7753825,-17.116009 5.225064,0 35.532509,26.545328 44.555959,26.353219 3.259455,-0.06939 7.124181,-5.000439 9.946634,-5.000439 2.822453,0 24.0137,12.335872 24.0137,12.335872 V 117.09523 H -5.4336537 Z"
         id="path3-6-1"
         sodipodi:nodetypes="cssscccc"
         clip-path="url(#clipPath12-4-8)"
         transform="translate(248.97292,-125.94167)" /><path
         style="fill:#35546b;fill-opacity:0.85;stroke:none;stroke-width:0.264583;stroke-opacity:1"
         d="M 4.6186055,85.851726 C 19.561153,81.504805 78.464025,41.567449 83.949949,41.567449 c 4.909595,0 16.300961,11.954039 21.462931,12.769088 5.16197,0.815046 7.33543,50.804663 7.33543,50.804663 H 3.8035576 Z"
         id="path5-4-3"
         clip-path="url(#clipPath11-5-9)"
         sodipodi:nodetypes="cssccc"
         transform="translate(248.97292,-125.94167)" /><path
         d="m 26.624731,55.96661 c -4.890287,0 -18.4743859,12.22561 -26.89654903,12.22561 l -0.81493737,39.6658 H 96.447343 c 0,0 1.629935,-35.590216 -1.358573,-35.861898 C 92.100259,71.72444 85.418434,75.124211 74.440934,77.7012 57.784919,81.611231 33.080911,55.96661 26.624731,55.96661 Z"
         style="fill:#0f1f2e;fill-opacity:0.8;stroke-width:0.264583"
         id="path6-3-5"
         sodipodi:nodetypes="scccsss"
         clip-path="url(#clipPath10-7-3)"
         transform="translate(248.97292,-125.94167)" /><circle
         style="fill:#e07a3f;fill-opacity:1;stroke:none;stroke-width:0.266909;stroke-opacity:1"
         id="path2-2-98"
         cx="313.97293"
         cy="-100.94167"
         r="9.8665457" /></g><path
       style="font-size:34.0425px;font-family:Sora;-inkscape-font-specification:Sora;fill:#0f1f2e;fill-opacity:0.85098;stroke-width:0.265957"
       d="m 35.953122,462.74063 v -24.85102 h 6.604245 l 6.229778,14.84253 h 0.612765 l 6.195735,-14.84253 h 6.706372 v 24.85102 h -4.799992 v -21.20848 l 0.612765,0.0681 -6.706373,16.06806 h -4.936162 l -6.740415,-16.06806 0.646807,-0.0681 v 21.20848 z m 40.987188,0.64681 q -2.45106,0 -4.323398,-0.78298 -1.872337,-0.78298 -3.165952,-2.11063 -1.293615,-1.3617 -1.974465,-3.06383 -0.646808,-1.70212 -0.646808,-3.54042 v -0.71489 q 0,-1.90638 0.68085,-3.60851 0.714893,-1.73616 2.008508,-3.06382 1.327657,-1.3617 3.199995,-2.11064 1.872337,-0.78297 4.22127,-0.78297 2.348932,0 4.22127,0.78297 1.872337,0.74894 3.165952,2.11064 1.327658,1.32766 2.008508,3.06382 0.68085,1.70213 0.68085,3.60851 v 0.71489 q 0,1.8383 -0.68085,3.54042 -0.646808,1.70213 -1.940423,3.06383 -1.293615,1.32765 -3.165952,2.11063 -1.872338,0.78298 -4.289355,0.78298 z m 0,-4.05106 q 1.736167,0 2.927655,-0.74893 1.191487,-0.78298 1.804252,-2.0766 0.612765,-1.32765 0.612765,-2.99574 0,-1.70212 -0.646807,-2.99574 -0.612765,-1.32765 -1.838295,-2.07659 -1.191488,-0.78298 -2.85957,-0.78298 -1.668083,0 -2.893613,0.78298 -1.191487,0.74894 -1.838295,2.07659 -0.646807,1.29362 -0.646807,2.99574 0,1.66809 0.612765,2.99574 0.646807,1.29362 1.838295,2.0766 1.191487,0.74893 2.927655,0.74893 z m 14.229791,3.40425 v -18.48508 h 3.744675 v 7.93191 h -0.340425 q 0,-2.82553 0.748935,-4.69787 0.748935,-1.90638 2.212762,-2.85957 1.49787,-0.95319 3.710632,-0.95319 h 0.20426 q 3.30212,0 5.00424,2.14468 1.70213,2.11063 1.70213,6.3319 v 10.58722 H 103.4254 V 451.7449 q 0,-1.70212 -0.98723,-2.75744 -0.95319,-1.05532 -2.655317,-1.05532 -1.736167,0 -2.825527,1.08936 -1.055318,1.05532 -1.055318,2.85957 v 10.85956 z m 30.093599,0.2383 q -2.55319,0 -4.22127,-0.64681 -1.63404,-0.68085 -2.45106,-2.2468 -0.81702,-1.6 -0.81702,-4.28936 l 0.034,-16.74891 h 4.42553 l -0.034,17.05529 q 0,1.3617 0.71489,2.11064 0.74893,0.71489 2.11063,0.71489 h 2.89362 v 4.05106 z m -10.417,-15.25104 v -3.47234 h 13.07232 v 3.47234 z m 17.94038,15.01274 v -18.48508 h 4.73191 v 18.48508 z m -2.58723,-14.94466 v -3.54042 h 7.31914 v 3.54042 z m 4.3234,-5.75318 q -1.39575,0 -2.0766,-0.71489 -0.6468,-0.74894 -0.6468,-1.87234 0,-1.1234 0.6468,-1.83829 0.68085,-0.7149 2.0766,-0.7149 1.39574,0 2.04255,0.7149 0.6468,0.71489 0.6468,1.83829 0,1.1234 -0.6468,1.87234 -0.64681,0.71489 -2.04255,0.71489 z m 8.44257,20.69784 v -18.48508 h 3.74467 v 7.93191 h -0.34042 q 0,-2.82553 0.74893,-4.69787 0.74894,-1.90638 2.21276,-2.85957 1.49787,-0.95319 3.71064,-0.95319 h 0.20425 q 3.30212,0 5.00425,2.14468 1.70212,2.11063 1.70212,6.3319 v 10.58722 h -4.7319 V 451.7449 q 0,-1.70212 -0.98724,-2.75744 -0.95319,-1.05532 -2.65531,-1.05532 -1.73617,0 -2.82553,1.08936 -1.05532,1.05532 -1.05532,2.85957 v 10.85956 z"
       id="text13-7-4"
       aria-label="Montin" /><path
       style="font-size:10.9361px;line-height:0;font-family:inter;-inkscape-font-specification:inter;letter-spacing:2.48708px;fill:#35546b;fill-opacity:0.85;stroke-width:0.264974"
       d="m 42.277185,475.06307 q 0,0.46457 -0.218936,0.91846 -0.213596,0.45389 -0.603408,0.76894 -0.427191,0.34175 -0.99856,0.53399 -0.566028,0.19224 -1.367012,0.19224 -0.859723,0 -1.548569,-0.1602 -0.683506,-0.1602 -1.393712,-0.47525 v -1.32429 h 0.07476 q 0.603408,0.50195 1.393712,0.77428 0.790304,0.27233 1.48449,0.27233 0.982541,0 1.52721,-0.36845 0.550009,-0.36845 0.550009,-0.98254 0,-0.52865 -0.261655,-0.77962 -0.256315,-0.25098 -0.784964,-0.38981 -0.400492,-0.1068 -0.870403,-0.17622 -0.46457,-0.0694 -0.98788,-0.17622 -1.057299,-0.22427 -1.569928,-0.7636 -0.50729,-0.54467 -0.50729,-1.41507 0,-0.99856 0.843703,-1.63401 0.843703,-0.64079 2.141297,-0.64079 0.838363,0 1.537889,0.1602 0.699526,0.1602 1.238855,0.39515 v 1.24954 h -0.07476 q -0.45389,-0.38448 -1.196135,-0.63545 -0.736906,-0.25632 -1.51119,-0.25632 -0.849043,0 -1.367013,0.35244 -0.512629,0.35243 -0.512629,0.90778 0,0.49661 0.256315,0.77962 0.256314,0.28302 0.902441,0.43253 0.341754,0.0748 0.971861,0.18156 0.630107,0.1068 1.067978,0.21894 0.886423,0.23495 1.334974,0.7102 0.448551,0.47525 0.448551,1.32964 z m 9.4236,2.26945 h -5.238434 v -7.9511 h 5.238434 v 0.93982 h -4.181136 v 2.17868 h 4.181136 v 0.93982 h -4.181136 v 2.95296 h 4.181136 z m 9.40224,0 H 55.86459 v -7.9511 h 5.238435 v 0.93982 h -4.181136 v 2.17868 h 4.181136 v 0.93982 h -4.181136 v 2.95296 h 4.181136 z m 16.166574,-7.01128 h -2.840823 v 7.01128 h -1.057298 v -7.01128 h -2.840823 v -0.93982 h 6.738944 z m 9.637197,7.01128 h -1.057299 v -3.89278 h -3.96754 v 3.89278 h -1.057299 v -7.9511 h 1.057299 v 3.1185 h 3.96754 v -3.1185 h 1.057299 z m 9.861474,0 h -5.238435 v -7.9511 h 5.238435 v 0.93982 h -4.181136 v 2.17868 h 4.181136 v 0.93982 h -4.181136 v 2.95296 h 4.181136 z m 19.74964,-7.9511 -2.06654,7.9511 h -1.19079 l -1.67139,-6.60011 -1.63401,6.60011 h -1.16409 l -2.10392,-7.9511 h 1.084 l 1.67138,6.61079 1.64469,-6.61079 h 1.07332 l 1.66071,6.67487 1.6607,-6.67487 z m 10.12847,7.9511 h -1.0573 v -3.89278 h -3.96754 v 3.89278 h -1.0573 v -7.9511 h 1.0573 v 3.1185 h 3.96754 v -3.1185 h 1.0573 z m 10.55032,-7.03798 q 0.48593,0.53399 0.74224,1.30827 0.26166,0.77429 0.26166,1.75683 0,0.98254 -0.267,1.76216 -0.26165,0.77429 -0.7369,1.29226 -0.49127,0.53933 -1.1641,0.81166 -0.66748,0.27234 -1.52721,0.27234 -0.83836,0 -1.52721,-0.27768 -0.6835,-0.27767 -1.16409,-0.80632 -0.48059,-0.52865 -0.74225,-1.2976 -0.25631,-0.76894 -0.25631,-1.75682 0,-0.97186 0.25631,-1.74081 0.25632,-0.77428 0.74759,-1.32429 0.46991,-0.52331 1.16409,-0.80098 0.69953,-0.27768 1.52187,-0.27768 0.85439,0 1.53255,0.28302 0.68351,0.27767 1.15876,0.79564 z m -0.0961,3.0651 q 0,-1.54857 -0.69419,-2.38693 -0.69418,-0.84371 -1.89566,-0.84371 -1.21215,0 -1.90634,0.84371 -0.68885,0.83836 -0.68885,2.38693 0,1.56459 0.70487,2.39761 0.70487,0.82768 1.89032,0.82768 1.18546,0 1.88498,-0.82768 0.70487,-0.83302 0.70487,-2.39761 z m 10.294,3.97288 h -5.03018 v -7.9511 h 1.0573 v 7.01128 h 3.97288 z m 8.78281,0 h -5.23843 v -7.9511 h 5.23843 v 0.93982 h -4.18113 v 2.17868 h 4.18113 v 0.93982 h -4.18113 v 2.95296 h 4.18113 z"
       id="text2-5-7"
       aria-label="SEE THE WHOLE" /></g></svg>
