<?xml version="1.0" encoding="UTF-8" standalone="no"?>
<!-- Created with Inkscape (http://www.inkscape.org/) -->

<svg
   width="120.22427mm"
   height="148.02174mm"
   viewBox="0 0 120.22426 148.02175"
   version="1.1"
   id="svg1"
   xml:space="preserve"
   inkscape:version="1.4.3 (0d15f75, 2025-12-25)"
   sodipodi:docname="montin-logo.svg"
   inkscape:export-batch-name="montin-logo-vertical-dark"
   inkscape:export-batch-path="C:\Users\André\Desktop"
   inkscape:export-filename="montin-logo.svg"
   inkscape:export-xdpi="96"
   inkscape:export-ydpi="96"
   xmlns:inkscape="http://www.inkscape.org/namespaces/inkscape"
   xmlns:sodipodi="http://sodipodi.sourceforge.net/DTD/sodipodi-0.dtd"
   xmlns="http://www.w3.org/2000/svg"
   xmlns:svg="http://www.w3.org/2000/svg"><sodipodi:namedview
     id="namedview1"
     pagecolor="#ffffff"
     bordercolor="#000000"
     borderopacity="0.25"
     inkscape:showpageshadow="2"
     inkscape:pageopacity="0.0"
     inkscape:pagecheckerboard="0"
     inkscape:deskcolor="#d1d1d1"
     inkscape:document-units="mm"
     inkscape:zoom="0.69174803"
     inkscape:cx="-610.77153"
     inkscape:cy="96.13327"
     inkscape:window-width="1920"
     inkscape:window-height="991"
     inkscape:window-x="324"
     inkscape:window-y="1341"
     inkscape:window-maximized="1"
     inkscape:current-layer="layer5"
     showgrid="false"><inkscape:grid
       id="grid2"
       units="mm"
       originx="97.227036"
       originy="-326.81836"
       spacingx="0.99999998"
       spacingy="1"
       empcolor="#0099e5"
       empopacity="0.30196078"
       color="#0099e5"
       opacity="0.14901961"
       empspacing="5"
       enabled="true"
       visible="false" /><inkscape:page
       x="0"
       y="-1.7759879e-07"
       width="120.22426"
       height="148.02174"
       id="page9"
       margin="0"
       bleed="0"
       inkscape:label="path-dark" /></sodipodi:namedview><defs
     id="defs1"><clipPath
       clipPathUnits="userSpaceOnUse"
       id="clipPath12-4-2-48"><circle
         style="fill:#e9ecef;fill-opacity:1;stroke:none;stroke-width:0.221851;stroke-opacity:1"
         id="circle13-5-3-6"
         cx="50"
         cy="50"
         r="49.889076" /></clipPath><clipPath
       clipPathUnits="userSpaceOnUse"
       id="clipPath11-5-3-5"><circle
         style="fill:#e9ecef;fill-opacity:1;stroke:none;stroke-width:0.221851;stroke-opacity:1"
         id="circle12-1-4-0"
         cx="50"
         cy="50"
         r="49.889076" /></clipPath><clipPath
       clipPathUnits="userSpaceOnUse"
       id="clipPath10-7-1-9"><circle
         style="fill:#e9ecef;fill-opacity:1;stroke:none;stroke-width:0.221851;stroke-opacity:1"
         id="circle11-1-1-0"
         cx="50"
         cy="50"
         r="49.889076" /></clipPath></defs><g
     inkscape:groupmode="layer"
     id="layer5"
     inkscape:label="Montanha2"
     transform="translate(97.227073,-326.81837)"><g
       id="g4-7-1"
       transform="translate(-336.20003,452.64913)"
       style="display:inline"><circle
         style="fill:#e9ecef;fill-opacity:1;stroke:none;stroke-width:0.221851;stroke-opacity:1"
         id="path1-2-4-3"
         cx="298.97293"
         cy="-75.941673"
         r="49.889076" /><path
         style="fill:#9aa6b2;fill-opacity:1;stroke:none;stroke-width:0.264583;stroke-opacity:1"
         d="m -4.6186055,50.804661 c 13.0407686,0 29.8850945,-17.116009 34.7753825,-17.116009 5.225064,0 35.532509,26.545328 44.555959,26.353219 3.259455,-0.06939 7.124181,-5.000439 9.946634,-5.000439 2.822453,0 24.0137,12.335872 24.0137,12.335872 V 117.09523 H -5.4336537 Z"
         id="path3-6-2-8"
         sodipodi:nodetypes="cssscccc"
         clip-path="url(#clipPath12-4-2-48)"
         transform="translate(248.97292,-125.94167)" /><path
         style="fill:#35546b;fill-opacity:0.85;stroke:none;stroke-width:0.264583;stroke-opacity:1"
         d="M 4.6186055,85.851726 C 19.561153,81.504805 78.464025,41.567449 83.949949,41.567449 c 4.909595,0 16.300961,11.954039 21.462931,12.769088 5.16197,0.815046 7.33543,50.804663 7.33543,50.804663 H 3.8035576 Z"
         id="path5-4-7-9"
         clip-path="url(#clipPath11-5-3-5)"
         sodipodi:nodetypes="cssccc"
         transform="translate(248.97292,-125.94167)" /><path
         d="m 26.624731,55.96661 c -4.890287,0 -18.4743859,12.22561 -26.89654903,12.22561 l -0.81493737,39.6658 H 96.447343 c 0,0 1.629935,-35.590216 -1.358573,-35.861898 C 92.100259,71.72444 85.418434,75.124211 74.440934,77.7012 57.784919,81.611231 33.080911,55.96661 26.624731,55.96661 Z"
         style="fill:#0f1f2e;fill-opacity:0.8;stroke-width:0.264583"
         id="path6-3-7-3"
         sodipodi:nodetypes="scccsss"
         clip-path="url(#clipPath10-7-1-9)"
         transform="translate(248.97292,-125.4125)" /><circle
         style="fill:#e07a3f;fill-opacity:1;stroke:none;stroke-width:0.266909;stroke-opacity:1"
         id="path2-2-9-4"
         cx="313.97293"
         cy="-100.94167"
         r="9.8665457" /></g><path
       style="font-size:34.0425px;font-family:Sora;-inkscape-font-specification:Sora;fill:#e9ecef;stroke-width:0.265957"
       d="m -97.227039,460.0827 v -24.85102 h 6.60425 l 6.22977,14.84253 h 0.61277 l 6.19573,-14.84253 h 6.70638 v 24.85102 h -4.8 v -21.20847 l 0.61277,0.0681 -6.70637,16.06806 h -4.93617 l -6.74041,-16.06806 0.64681,-0.0681 v 21.20847 z m 40.98719,0.64681 q -2.45106,0 -4.3234,-0.78298 -1.87234,-0.78297 -3.16595,-2.11063 -1.29362,-1.3617 -1.97447,-3.06383 -0.6468,-1.70212 -0.6468,-3.54042 v -0.71489 q 0,-1.90638 0.68085,-3.6085 0.71489,-1.73617 2.0085,-3.06383 1.32766,-1.3617 3.2,-2.11063 1.87234,-0.78298 4.22127,-0.78298 2.34893,0 4.22127,0.78298 1.87234,0.74893 3.16595,2.11063 1.32766,1.32766 2.00851,3.06383 0.68085,1.70212 0.68085,3.6085 v 0.71489 q 0,1.8383 -0.68085,3.54042 -0.64681,1.70213 -1.94042,3.06383 -1.29362,1.32766 -3.16596,2.11063 -1.87233,0.78298 -4.28935,0.78298 z m 0,-4.05106 q 1.73617,0 2.92765,-0.74893 1.19149,-0.78298 1.80426,-2.07659 0.61276,-1.32766 0.61276,-2.99574 0,-1.70213 -0.64681,-2.99574 -0.61276,-1.32766 -1.83829,-2.0766 -1.19149,-0.78297 -2.85957,-0.78297 -1.66808,0 -2.89361,0.78297 -1.19149,0.74894 -1.8383,2.0766 -0.64681,1.29361 -0.64681,2.99574 0,1.66808 0.61277,2.99574 0.64681,1.29361 1.83829,2.07659 1.19149,0.74893 2.92766,0.74893 z m 14.22979,3.40425 v -18.48507 h 3.74467 v 7.9319 h -0.34042 q 0,-2.82553 0.74893,-4.69787 0.74894,-1.90638 2.21277,-2.85957 1.49787,-0.95319 3.71063,-0.95319 h 0.20425 q 3.30213,0 5.00425,2.14468 1.70213,2.11064 1.70213,6.33191 v 10.58721 h -4.73191 v -10.99572 q 0,-1.70213 -0.98723,-2.75745 -0.95319,-1.05531 -2.65532,-1.05531 -1.73617,0 -2.82553,1.08936 -1.05531,1.05531 -1.05531,2.85957 v 10.85955 z m 30.093596,0.2383 q -2.553186,0 -4.221266,-0.64681 -1.63404,-0.68085 -2.45106,-2.2468 -0.81702,-1.6 -0.81702,-4.28936 l 0.034,-16.74891 h 4.42552 l -0.034,17.0553 q 0,1.3617 0.7149,2.11063 0.748936,0.71489 2.110636,0.71489 h 2.8936096 v 4.05106 z m -10.417006,-15.25104 v -3.47233 h 13.0723256 v 3.47233 z m 17.9403856,15.01274 v -18.48507 h 4.73191004 v 18.48507 z m -2.58723,-14.94465 v -3.54042 h 7.31914004 v 3.54042 z m 4.3234,-5.75319 q -1.39574,0 -2.07659,-0.71489 -0.64681,-0.74893 -0.64681,-1.87234 0,-1.1234 0.64681,-1.83829 0.68085,-0.71489 2.07659,-0.71489 1.39574,0 2.04255004,0.71489 0.64681,0.71489 0.64681,1.83829 0,1.12341 -0.64681,1.87234 -0.64681004,0.71489 -2.04255004,0.71489 z m 8.44257,20.69784 v -18.48507 h 3.74467 v 7.9319 h -0.34042 q 0,-2.82553 0.74893,-4.69787 0.7489404,-1.90638 2.2127704,-2.85957 1.49787,-0.95319 3.71063,-0.95319 h 0.20425 q 3.30213,0 5.00425,2.14468 1.70213,2.11064 1.70213,6.33191 v 10.58721 h -4.73191 v -10.99572 q 0,-1.70213 -0.98723,-2.75745 -0.95319,-1.05531 -2.65532,-1.05531 -1.73617,0 -2.82553,1.08936 -1.05531,1.05531 -1.05531,2.85957 v 10.85955 z"
       id="text13-7-3-4"
       aria-label="Montin" /><path
       style="font-size:10.9361px;line-height:0;font-family:inter;-inkscape-font-specification:inter;letter-spacing:2.48708px;fill:#8d9ba6;stroke-width:0.264974"
       d="m -90.902979,472.40517 q 0,0.46457 -0.21893,0.91846 -0.2136,0.45389 -0.60341,0.76894 -0.42719,0.34176 -0.99856,0.53399 -0.56603,0.19224 -1.36701,0.19224 -0.85973,0 -1.54857,-0.1602 -0.68351,-0.16019 -1.39371,-0.47525 v -1.32429 h 0.0748 q 0.6034,0.50195 1.39371,0.77428 0.7903,0.27234 1.48449,0.27234 0.98254,0 1.52721,-0.36846 0.55001,-0.36845 0.55001,-0.98254 0,-0.52865 -0.26166,-0.77962 -0.25631,-0.25098 -0.78496,-0.38981 -0.4005,-0.1068 -0.87041,-0.17622 -0.46457,-0.0694 -0.98788,-0.17622 -1.05729,-0.22427 -1.56992,-0.7636 -0.50729,-0.54467 -0.50729,-1.41507 0,-0.99856 0.8437,-1.63401 0.8437,-0.64079 2.1413,-0.64079 0.83836,0 1.53788,0.1602 0.69953,0.1602 1.23886,0.39515 v 1.24954 h -0.0748 q -0.45389,-0.38447 -1.19614,-0.63545 -0.7369,-0.25631 -1.51119,-0.25631 -0.84904,0 -1.36701,0.35243 -0.51263,0.35243 -0.51263,0.90778 0,0.49661 0.25632,0.77963 0.25631,0.28301 0.90244,0.43253 0.34175,0.0747 0.97186,0.18155 0.63011,0.1068 1.06798,0.21894 0.88642,0.23495 1.33497,0.7102 0.44855,0.47525 0.44855,1.32964 z m 9.4236,2.26945 h -5.23843 v -7.9511 h 5.23843 v 0.93982 h -4.18113 v 2.17868 h 4.18113 v 0.93982 h -4.18113 v 2.95296 h 4.18113 z m 9.40224,0 h -5.23843 v -7.9511 h 5.23843 v 0.93982 h -4.18113 v 2.17868 h 4.18113 v 0.93982 h -4.18113 v 2.95296 h 4.18113 z m 16.16658,-7.01128 h -2.84083 v 7.01128 h -1.05729 v -7.01128 h -2.84083 v -0.93982 h 6.73895 z m 9.63719,7.01128 h -1.0573 v -3.89278 h -3.96754 v 3.89278 h -1.05729 v -7.9511 h 1.05729 v 3.1185 h 3.96754 v -3.1185 h 1.0573 z m 9.86148,0 h -5.23844 v -7.9511 h 5.23844 v 0.93982 h -4.18114 v 2.17868 h 4.18114 v 0.93982 h -4.18114 v 2.95296 h 4.18114 z m 19.74964,-7.9511 -2.06654,7.9511 h -1.19079 l -1.67139,-6.60011 -1.63401,6.60011 h -1.16409 l -2.10392,-7.9511 h 1.084 l 1.67138,6.61079 1.64469,-6.61079 h 1.07332 l 1.6607,6.67487 1.66071,-6.67487 z m 10.1284656,7.9511 h -1.0573 v -3.89278 h -3.9675396 v 3.89278 h -1.0573 v -7.9511 h 1.0573 v 3.1185 h 3.9675396 v -3.1185 h 1.0573 z m 10.55032,-7.03798 q 0.48593,0.53399 0.74225,1.30828 0.26165,0.77428 0.26165,1.75682 0,0.98254 -0.26699,1.76217 -0.26166,0.77428 -0.73691,1.29225 -0.49127,0.53933 -1.1641,0.81166 -0.66748,0.27234 -1.5272,0.27234 -0.83836996,0 -1.52720996,-0.27768 -0.68351,-0.27767 -1.16410004,-0.80632 -0.48059,-0.52865 -0.74225,-1.29759 -0.25631,-0.76895 -0.25631,-1.75683 0,-0.97186 0.25631,-1.7408 0.25632,-0.77429 0.74759,-1.3243 0.46991004,-0.52331 1.16410004,-0.80098 0.69952,-0.27768 1.52186996,-0.27768 0.85438,0 1.53254,0.28302 0.68351,0.27767 1.15876,0.79564 z m -0.0961,3.0651 q 0,-1.54857 -0.69418,-2.38693 -0.69419,-0.8437 -1.89566,-0.8437 -1.21215996,0 -1.90634996,0.8437 -0.68884004,0.83836 -0.68884004,2.38693 0,1.56459 0.70486004,2.39761 0.70487,0.82769 1.89032996,0.82769 1.18545,0 1.88498,-0.82769 0.70486,-0.83302 0.70486,-2.39761 z m 10.2940104,3.97288 H 9.1842666 v -7.9511 h 1.0573004 v 7.01128 h 3.97288 z m 8.78281,0 h -5.23846 v -7.9511 h 5.23844 v 0.93982 h -4.18114 v 2.17868 h 4.18114 v 0.93982 h -4.18114 v 2.95296 h 4.18114 z"
       id="text2-5-9-0"
       aria-label="SEE THE WHOLE" /></g></svg>
